<?xml version="1.0" encoding="UTF-8"?><svg xmlns="http://www.w3.org/2000/svg" xmlns:xlink="http://www.w3.org/1999/xlink" contentScriptType="text/ecmascript" width="375" zoomAndPan="magnify" contentStyleType="text/css" viewBox="0 0 375 374.999991" height="374.999991" preserveAspectRatio="xMidYMid meet" version="1.0"><defs><clipPath id="clip-0"><path d="M 143 118 L 233 118 L 233 165 L 143 165 Z M 143 118 " clip-rule="nonzero"/></clipPath><clipPath id="clip-1"><path d="M 232.152344 163.734375 C 232.152344 164.152344 232.152344 164.570312 232.128906 164.988281 L 203.195312 149.699219 C 202.957031 150.277344 202.667969 150.832031 202.332031 151.359375 C 201.992188 151.886719 201.613281 152.382812 201.195312 152.847656 C 200.773438 153.308594 200.316406 153.734375 199.820312 154.117188 C 199.328125 154.503906 198.804688 154.84375 198.253906 155.136719 C 197.699219 155.433594 197.128906 155.679688 196.53125 155.875 C 195.9375 156.070312 195.332031 156.214844 194.714844 156.304688 C 194.09375 156.398438 193.472656 156.4375 192.847656 156.421875 C 192.222656 156.40625 191.601562 156.335938 190.988281 156.214844 C 190.375 156.09375 189.777344 155.921875 189.191406 155.695312 C 188.609375 155.472656 188.046875 155.199219 187.511719 154.878906 C 186.972656 154.554688 186.46875 154.191406 185.992188 153.785156 C 185.515625 153.375 185.082031 152.929688 184.683594 152.445312 C 184.285156 151.964844 183.929688 151.449219 183.621094 150.90625 C 183.308594 150.359375 183.046875 149.792969 182.835938 149.207031 C 182.621094 148.617188 182.460938 148.011719 182.351562 147.394531 C 182.242188 146.777344 182.183594 146.15625 182.179688 145.53125 L 143.441406 150.136719 C 144.992188 145.167969 147.332031 140.605469 150.460938 136.449219 L 182.648438 142.324219 C 183.003906 141.125 183.550781 140.023438 184.285156 139.011719 C 185.019531 138.003906 185.898438 137.144531 186.929688 136.4375 L 172.386719 120.597656 C 175.398438 119.582031 178.484375 118.902344 181.644531 118.554688 L 189.539062 135.125 C 190.628906 134.742188 191.75 134.542969 192.902344 134.527344 L 190.753906 118.449219 C 193.253906 118.664062 195.71875 119.085938 198.152344 119.714844 L 195.628906 134.820312 C 197.828125 135.339844 199.683594 136.4375 201.203125 138.113281 L 213.167969 126.753906 C 215.386719 128.339844 217.445312 130.117188 219.335938 132.085938 L 202.757812 140.316406 C 203.613281 141.925781 204.042969 143.644531 204.039062 145.472656 C 204.039062 145.941406 204.007812 146.410156 203.941406 146.875 L 230.605469 151.929688 C 231.640625 155.796875 232.15625 159.730469 232.152344 163.734375 Z M 232.152344 163.734375 " clip-rule="nonzero"/></clipPath><linearGradient x1="34.747655" gradientTransform="matrix(1.600722, 0, 0, 1.603448, 135.545274, 112.515717)" xmlns:xlink="http://www.w3.org/1999/xlink" y1="37.547901" x2="27.569665" gradientUnits="userSpaceOnUse" y2="-0.563288" xlink:type="simple" xlink:actuate="onLoad" id="linear-pattern-0" xlink:show="other"><stop stop-opacity="1" stop-color="rgb(100%, 45.098877%, 0%)" offset="0"/><stop stop-opacity="1" stop-color="rgb(99.992371%, 45.109558%, 0%)" offset="0.125"/><stop stop-opacity="1" stop-color="rgb(99.865723%, 45.292664%, 0.0213623%)" offset="0.140625"/><stop stop-opacity="1" stop-color="rgb(99.627686%, 45.639038%, 0.0610352%)" offset="0.15625"/><stop stop-opacity="1" stop-color="rgb(99.389648%, 45.986938%, 0.100708%)" offset="0.171875"/><stop stop-opacity="1" stop-color="rgb(99.153137%, 46.333313%, 0.140381%)" offset="0.1875"/><stop stop-opacity="1" stop-color="rgb(98.9151%, 46.681213%, 0.180054%)" offset="0.203125"/><stop stop-opacity="1" stop-color="rgb(98.677063%, 47.027588%, 0.219727%)" offset="0.21875"/><stop stop-opacity="1" stop-color="rgb(98.439026%, 47.373962%, 0.259399%)" offset="0.234375"/><stop stop-opacity="1" stop-color="rgb(98.200989%, 47.721863%, 0.299072%)" offset="0.25"/><stop stop-opacity="1" stop-color="rgb(97.962952%, 48.068237%, 0.338745%)" offset="0.264503"/><stop stop-opacity="1" stop-color="rgb(97.843933%, 48.242188%, 0.358582%)" offset="0.265625"/><stop stop-opacity="1" stop-color="rgb(97.724915%, 48.414612%, 0.378418%)" offset="0.28125"/><stop stop-opacity="1" stop-color="rgb(97.520447%, 48.736572%, 0.404358%)" offset="0.289062"/><stop stop-opacity="1" stop-color="rgb(97.349548%, 49.03717%, 0.416565%)" offset="0.296875"/><stop stop-opacity="1" stop-color="rgb(97.175598%, 49.342346%, 0.428772%)" offset="0.304688"/><stop stop-opacity="1" stop-color="rgb(97.003174%, 49.645996%, 0.439453%)" offset="0.3125"/><stop stop-opacity="1" stop-color="rgb(96.829224%, 49.951172%, 0.45166%)" offset="0.320312"/><stop stop-opacity="1" stop-color="rgb(96.656799%, 50.254822%, 0.463867%)" offset="0.328125"/><stop stop-opacity="1" stop-color="rgb(96.484375%, 50.559998%, 0.476074%)" offset="0.335937"/><stop stop-opacity="1" stop-color="rgb(96.310425%, 50.863647%, 0.488281%)" offset="0.34375"/><stop stop-opacity="1" stop-color="rgb(96.138%, 51.168823%, 0.500488%)" offset="0.351562"/><stop stop-opacity="1" stop-color="rgb(95.96405%, 51.472473%, 0.511169%)" offset="0.359375"/><stop stop-opacity="1" stop-color="rgb(95.791626%, 51.777649%, 0.523376%)" offset="0.367187"/><stop stop-opacity="1" stop-color="rgb(95.617676%, 52.081299%, 0.535583%)" offset="0.375"/><stop stop-opacity="1" stop-color="rgb(95.445251%, 52.386475%, 0.547791%)" offset="0.382812"/><stop stop-opacity="1" stop-color="rgb(95.272827%, 52.690125%, 0.559998%)" offset="0.390625"/><stop stop-opacity="1" stop-color="rgb(95.098877%, 52.9953%, 0.572205%)" offset="0.398438"/><stop stop-opacity="1" stop-color="rgb(94.926453%, 53.29895%, 0.582886%)" offset="0.40625"/><stop stop-opacity="1" stop-color="rgb(94.752502%, 53.604126%, 0.595093%)" offset="0.414062"/><stop stop-opacity="1" stop-color="rgb(94.580078%, 53.907776%, 0.6073%)" offset="0.421875"/><stop stop-opacity="1" stop-color="rgb(94.406128%, 54.212952%, 0.619507%)" offset="0.429688"/><stop stop-opacity="1" stop-color="rgb(94.233704%, 54.516602%, 0.631714%)" offset="0.4375"/><stop stop-opacity="1" stop-color="rgb(94.061279%, 54.820251%, 0.642395%)" offset="0.445312"/><stop stop-opacity="1" stop-color="rgb(93.887329%, 55.125427%, 0.654602%)" offset="0.453125"/><stop stop-opacity="1" stop-color="rgb(93.714905%, 55.429077%, 0.666809%)" offset="0.460938"/><stop stop-opacity="1" stop-color="rgb(93.540955%, 55.734253%, 0.679016%)" offset="0.46875"/><stop stop-opacity="1" stop-color="rgb(93.36853%, 56.037903%, 0.691223%)" offset="0.476562"/><stop stop-opacity="1" stop-color="rgb(93.19458%, 56.343079%, 0.70343%)" offset="0.484375"/><stop stop-opacity="1" stop-color="rgb(93.022156%, 56.646729%, 0.714111%)" offset="0.492188"/><stop stop-opacity="1" stop-color="rgb(92.849731%, 56.951904%, 0.726318%)" offset="0.5"/><stop stop-opacity="1" stop-color="rgb(92.675781%, 57.255554%, 0.738525%)" offset="0.507812"/><stop stop-opacity="1" stop-color="rgb(92.503357%, 57.56073%, 0.750732%)" offset="0.515625"/><stop stop-opacity="1" stop-color="rgb(92.329407%, 57.86438%, 0.762939%)" offset="0.523438"/><stop stop-opacity="1" stop-color="rgb(92.156982%, 58.169556%, 0.775146%)" offset="0.53125"/><stop stop-opacity="1" stop-color="rgb(91.984558%, 58.473206%, 0.785828%)" offset="0.539062"/><stop stop-opacity="1" stop-color="rgb(91.801453%, 58.787537%, 0.804138%)" offset="0.546875"/><stop stop-opacity="1" stop-color="rgb(91.596985%, 59.121704%, 0.839233%)" offset="0.554688"/><stop stop-opacity="1" stop-color="rgb(91.38031%, 59.468079%, 0.881958%)" offset="0.5625"/><stop stop-opacity="1" stop-color="rgb(91.163635%, 59.814453%, 0.926208%)" offset="0.570312"/><stop stop-opacity="1" stop-color="rgb(90.94696%, 60.160828%, 0.968933%)" offset="0.578125"/><stop stop-opacity="1" stop-color="rgb(90.730286%, 60.507202%, 1.013184%)" offset="0.585938"/><stop stop-opacity="1" stop-color="rgb(90.515137%, 60.853577%, 1.055908%)" offset="0.59375"/><stop stop-opacity="1" stop-color="rgb(90.298462%, 61.201477%, 1.098633%)" offset="0.601562"/><stop stop-opacity="1" stop-color="rgb(90.081787%, 61.547852%, 1.142883%)" offset="0.609375"/><stop stop-opacity="1" stop-color="rgb(89.886475%, 61.903381%, 1.177979%)" offset="0.617188"/><stop stop-opacity="1" stop-color="rgb(89.7995%, 62.298584%, 1.176453%)" offset="0.621094"/><stop stop-opacity="1" stop-color="rgb(89.7995%, 62.513733%, 1.159668%)" offset="0.625"/><stop stop-opacity="1" stop-color="rgb(89.7995%, 62.727356%, 1.141357%)" offset="0.628906"/><stop stop-opacity="1" stop-color="rgb(89.7995%, 62.942505%, 1.124573%)" offset="0.632812"/><stop stop-opacity="1" stop-color="rgb(89.7995%, 63.156128%, 1.107788%)" offset="0.636719"/><stop stop-opacity="1" stop-color="rgb(89.7995%, 63.371277%, 1.091003%)" offset="0.640625"/><stop stop-opacity="1" stop-color="rgb(89.7995%, 63.5849%, 1.074219%)" offset="0.644531"/><stop stop-opacity="1" stop-color="rgb(89.7995%, 63.800049%, 1.057434%)" offset="0.648437"/><stop stop-opacity="1" stop-color="rgb(89.7995%, 64.013672%, 1.040649%)" offset="0.652344"/><stop stop-opacity="1" stop-color="rgb(89.7995%, 64.228821%, 1.023865%)" offset="0.65625"/><stop stop-opacity="1" stop-color="rgb(89.7995%, 64.442444%, 1.00708%)" offset="0.660156"/><stop stop-opacity="1" stop-color="rgb(89.7995%, 64.657593%, 0.990295%)" offset="0.664062"/><stop stop-opacity="1" stop-color="rgb(89.7995%, 64.871216%, 0.973511%)" offset="0.667969"/><stop stop-opacity="1" stop-color="rgb(89.7995%, 65.086365%, 0.956726%)" offset="0.671875"/><stop stop-opacity="1" stop-color="rgb(89.7995%, 65.299988%, 0.939941%)" offset="0.675781"/><stop stop-opacity="1" stop-color="rgb(89.7995%, 65.515137%, 0.923157%)" offset="0.679687"/><stop stop-opacity="1" stop-color="rgb(89.7995%, 65.72876%, 0.906372%)" offset="0.683594"/><stop stop-opacity="1" stop-color="rgb(89.7995%, 65.943909%, 0.889587%)" offset="0.6875"/><stop stop-opacity="1" stop-color="rgb(89.7995%, 66.157532%, 0.872803%)" offset="0.691406"/><stop stop-opacity="1" stop-color="rgb(89.7995%, 66.372681%, 0.856018%)" offset="0.695312"/><stop stop-opacity="1" stop-color="rgb(89.7995%, 66.586304%, 0.839233%)" offset="0.699219"/><stop stop-opacity="1" stop-color="rgb(89.7995%, 66.801453%, 0.822449%)" offset="0.703125"/><stop stop-opacity="1" stop-color="rgb(89.7995%, 67.015076%, 0.805664%)" offset="0.707031"/><stop stop-opacity="1" stop-color="rgb(89.7995%, 67.230225%, 0.788879%)" offset="0.710937"/><stop stop-opacity="1" stop-color="rgb(89.7995%, 67.443848%, 0.772095%)" offset="0.714844"/><stop stop-opacity="1" stop-color="rgb(89.7995%, 67.658997%, 0.75531%)" offset="0.71875"/><stop stop-opacity="1" stop-color="rgb(89.7995%, 67.87262%, 0.738525%)" offset="0.722656"/><stop stop-opacity="1" stop-color="rgb(89.7995%, 68.087769%, 0.721741%)" offset="0.726562"/><stop stop-opacity="1" stop-color="rgb(89.7995%, 68.301392%, 0.704956%)" offset="0.730469"/><stop stop-opacity="1" stop-color="rgb(89.7995%, 68.516541%, 0.688171%)" offset="0.734375"/><stop stop-opacity="1" stop-color="rgb(89.7995%, 68.730164%, 0.671387%)" offset="0.738281"/><stop stop-opacity="1" stop-color="rgb(89.7995%, 68.945312%, 0.654602%)" offset="0.742187"/><stop stop-opacity="1" stop-color="rgb(89.7995%, 69.158936%, 0.637817%)" offset="0.746094"/><stop stop-opacity="1" stop-color="rgb(89.7995%, 69.374084%, 0.621033%)" offset="0.75"/><stop stop-opacity="1" stop-color="rgb(89.7995%, 69.587708%, 0.604248%)" offset="0.753906"/><stop stop-opacity="1" stop-color="rgb(89.7995%, 69.802856%, 0.587463%)" offset="0.757813"/><stop stop-opacity="1" stop-color="rgb(89.7995%, 70.018005%, 0.570679%)" offset="0.761719"/><stop stop-opacity="1" stop-color="rgb(89.7995%, 70.233154%, 0.553894%)" offset="0.765625"/><stop stop-opacity="1" stop-color="rgb(89.7995%, 70.446777%, 0.537109%)" offset="0.769531"/><stop stop-opacity="1" stop-color="rgb(89.7995%, 70.661926%, 0.520325%)" offset="0.773438"/><stop stop-opacity="1" stop-color="rgb(89.7995%, 70.875549%, 0.50354%)" offset="0.777344"/><stop stop-opacity="1" stop-color="rgb(89.7995%, 71.090698%, 0.486755%)" offset="0.78125"/><stop stop-opacity="1" stop-color="rgb(89.7995%, 71.304321%, 0.469971%)" offset="0.785156"/><stop stop-opacity="1" stop-color="rgb(89.7995%, 71.51947%, 0.453186%)" offset="0.789063"/><stop stop-opacity="1" stop-color="rgb(89.7995%, 71.733093%, 0.436401%)" offset="0.792969"/><stop stop-opacity="1" stop-color="rgb(89.7995%, 71.948242%, 0.419617%)" offset="0.796875"/><stop stop-opacity="1" stop-color="rgb(89.7995%, 72.161865%, 0.402832%)" offset="0.800781"/><stop stop-opacity="1" stop-color="rgb(89.7995%, 72.377014%, 0.386047%)" offset="0.804688"/><stop stop-opacity="1" stop-color="rgb(89.7995%, 72.590637%, 0.367737%)" offset="0.808594"/><stop stop-opacity="1" stop-color="rgb(89.7995%, 72.805786%, 0.350952%)" offset="0.8125"/><stop stop-opacity="1" stop-color="rgb(89.7995%, 73.019409%, 0.334167%)" offset="0.816406"/><stop stop-opacity="1" stop-color="rgb(89.7995%, 73.234558%, 0.317383%)" offset="0.820313"/><stop stop-opacity="1" stop-color="rgb(89.7995%, 73.448181%, 0.300598%)" offset="0.824219"/><stop stop-opacity="1" stop-color="rgb(89.7995%, 73.66333%, 0.283813%)" offset="0.828125"/><stop stop-opacity="1" stop-color="rgb(89.7995%, 73.876953%, 0.267029%)" offset="0.832031"/><stop stop-opacity="1" stop-color="rgb(89.7995%, 74.092102%, 0.250244%)" offset="0.835938"/><stop stop-opacity="1" stop-color="rgb(89.7995%, 74.305725%, 0.233459%)" offset="0.839844"/><stop stop-opacity="1" stop-color="rgb(89.7995%, 74.520874%, 0.216675%)" offset="0.84375"/><stop stop-opacity="1" stop-color="rgb(89.7995%, 74.734497%, 0.19989%)" offset="0.847656"/><stop stop-opacity="1" stop-color="rgb(89.7995%, 74.949646%, 0.183105%)" offset="0.851563"/><stop stop-opacity="1" stop-color="rgb(89.7995%, 75.163269%, 0.166321%)" offset="0.855469"/><stop stop-opacity="1" stop-color="rgb(89.7995%, 75.378418%, 0.149536%)" offset="0.859375"/><stop stop-opacity="1" stop-color="rgb(89.7995%, 75.592041%, 0.132751%)" offset="0.863281"/><stop stop-opacity="1" stop-color="rgb(89.7995%, 75.80719%, 0.115967%)" offset="0.867188"/><stop stop-opacity="1" stop-color="rgb(89.7995%, 76.020813%, 0.0991821%)" offset="0.871094"/><stop stop-opacity="1" stop-color="rgb(89.7995%, 76.235962%, 0.0823975%)" offset="0.875"/><stop stop-opacity="1" stop-color="rgb(89.7995%, 76.449585%, 0.0656128%)" offset="0.878906"/><stop stop-opacity="1" stop-color="rgb(89.7995%, 76.664734%, 0.0488281%)" offset="0.882812"/><stop stop-opacity="1" stop-color="rgb(89.7995%, 76.878357%, 0.0320435%)" offset="0.886719"/><stop stop-opacity="1" stop-color="rgb(89.7995%, 77.093506%, 0.0152588%)" offset="0.890625"/><stop stop-opacity="1" stop-color="rgb(89.535522%, 76.596069%, 0.00762939%)" offset="0.894531"/><stop stop-opacity="1" stop-color="rgb(89.271545%, 76.100159%, 0%)" offset="0.898438"/><stop stop-opacity="1" stop-color="rgb(88.763428%, 74.951172%, 0%)" offset="0.902344"/><stop stop-opacity="1" stop-color="rgb(88.256836%, 73.802185%, 0%)" offset="0.90625"/><stop stop-opacity="1" stop-color="rgb(87.750244%, 72.651672%, 0%)" offset="0.910156"/><stop stop-opacity="1" stop-color="rgb(87.243652%, 71.502686%, 0%)" offset="0.914062"/><stop stop-opacity="1" stop-color="rgb(86.737061%, 70.353699%, 0%)" offset="0.917969"/><stop stop-opacity="1" stop-color="rgb(86.230469%, 69.204712%, 0%)" offset="0.921875"/><stop stop-opacity="1" stop-color="rgb(85.723877%, 68.054199%, 0%)" offset="0.925781"/><stop stop-opacity="1" stop-color="rgb(85.217285%, 66.905212%, 0%)" offset="0.929688"/><stop stop-opacity="1" stop-color="rgb(84.710693%, 65.756226%, 0%)" offset="0.933594"/><stop stop-opacity="1" stop-color="rgb(84.204102%, 64.607239%, 0%)" offset="0.9375"/><stop stop-opacity="1" stop-color="rgb(83.69751%, 63.456726%, 0%)" offset="0.941406"/><stop stop-opacity="1" stop-color="rgb(83.190918%, 62.307739%, 0%)" offset="0.945312"/><stop stop-opacity="1" stop-color="rgb(82.684326%, 61.158752%, 0%)" offset="0.949219"/><stop stop-opacity="1" stop-color="rgb(82.177734%, 60.009766%, 0%)" offset="0.953125"/><stop stop-opacity="1" stop-color="rgb(81.671143%, 58.859253%, 0%)" offset="0.957031"/><stop stop-opacity="1" stop-color="rgb(81.164551%, 57.710266%, 0%)" offset="0.960938"/><stop stop-opacity="1" stop-color="rgb(80.657959%, 56.561279%, 0%)" offset="0.964844"/><stop stop-opacity="1" stop-color="rgb(80.151367%, 55.412292%, 0%)" offset="0.96875"/><stop stop-opacity="1" stop-color="rgb(79.644775%, 54.263306%, 0%)" offset="0.972656"/><stop stop-opacity="1" stop-color="rgb(79.138184%, 53.114319%, 0%)" offset="0.976562"/><stop stop-opacity="1" stop-color="rgb(78.630066%, 51.963806%, 0%)" offset="0.980469"/><stop stop-opacity="1" stop-color="rgb(78.123474%, 50.814819%, 0%)" offset="0.984375"/><stop stop-opacity="1" stop-color="rgb(77.616882%, 49.665833%, 0%)" offset="0.988281"/><stop stop-opacity="1" stop-color="rgb(77.110291%, 48.516846%, 0%)" offset="0.992188"/><stop stop-opacity="1" stop-color="rgb(76.603699%, 47.366333%, 0%)" offset="0.996094"/><stop stop-opacity="1" stop-color="rgb(76.097107%, 46.217346%, 0%)" offset="1"/></linearGradient><clipPath id="clip-2"><path d="M 140.078125 117.324219 L 234 117.324219 L 234 210.324219 L 140.078125 210.324219 Z M 140.078125 117.324219 " clip-rule="nonzero"/></clipPath></defs><path fill="rgb(9.408569%, 11.369324%, 15.289307%)" d="M 209.5 180.058594 L 209.148438 179.257812 C 209.035156 179.09375 208.882812 178.984375 208.691406 178.933594 L 206.609375 178.304688 C 206.410156 178.246094 206.4375 178.195312 206.671875 178.195312 L 208.253906 178.195312 C 208.488281 178.195312 208.652344 178.128906 208.613281 178.046875 C 208.503906 177.914062 208.367188 177.824219 208.199219 177.777344 L 206.964844 177.339844 C 206.773438 177.273438 206.804688 177.179688 207.023438 177.152344 L 207.742188 177.035156 C 207.964844 177 208.101562 176.875 208.0625 176.757812 L 207.941406 176.480469 C 207.84375 176.320312 207.714844 176.195312 207.546875 176.113281 L 206.925781 175.792969 C 206.765625 175.707031 206.8125 175.617188 207.035156 175.585938 L 207.113281 175.578125 C 207.339844 175.550781 207.484375 175.429688 207.433594 175.3125 L 207.296875 174.992188 C 207.195312 174.832031 207.058594 174.710938 206.886719 174.636719 L 205.875 174.179688 C 205.703125 174.097656 205.738281 174 205.960938 173.957031 L 206.378906 173.878906 C 206.597656 173.839844 206.738281 173.71875 206.6875 173.59375 L 206.648438 173.507812 C 206.554688 173.347656 206.425781 173.226562 206.261719 173.136719 L 205.851562 172.914062 C 205.691406 172.828125 205.714844 172.722656 205.90625 172.679688 C 206.097656 172.636719 206.210938 172.503906 206.160156 172.386719 L 205.425781 170.699219 C 205.375 170.582031 205.289062 170.582031 205.234375 170.699219 L 204.230469 172.894531 C 204.179688 173.011719 204.261719 173.132812 204.414062 173.167969 C 204.566406 173.203125 204.5625 173.300781 204.398438 173.390625 L 204.167969 173.515625 C 204.003906 173.601562 203.875 173.726562 203.777344 173.886719 L 203.683594 174.089844 C 203.632812 174.207031 203.765625 174.335938 203.988281 174.375 L 204.292969 174.433594 C 204.515625 174.472656 204.550781 174.574219 204.375 174.652344 L 203.496094 175.054688 C 203.320312 175.128906 203.183594 175.25 203.078125 175.410156 L 202.902344 175.792969 C 202.851562 175.910156 202.992188 176.027344 203.222656 176.058594 C 203.457031 176.085938 203.5 176.179688 203.332031 176.261719 L 202.804688 176.535156 C 202.636719 176.617188 202.503906 176.738281 202.402344 176.898438 L 202.253906 177.234375 C 202.199219 177.347656 202.339844 177.472656 202.5625 177.511719 L 203.226562 177.617188 C 203.449219 177.65625 203.476562 177.738281 203.28125 177.808594 L 202.085938 178.230469 C 201.917969 178.277344 201.78125 178.371094 201.667969 178.507812 C 201.628906 178.59375 201.789062 178.667969 202.023438 178.667969 L 203.574219 178.667969 C 203.8125 178.667969 203.839844 178.71875 203.636719 178.78125 L 201.574219 179.40625 C 201.378906 179.457031 201.226562 179.5625 201.109375 179.726562 L 200.957031 180.058594 C 200.90625 180.175781 201.054688 180.269531 201.285156 180.269531 L 204.648438 180.269531 L 204.648438 184.589844 L 205.816406 184.589844 L 205.816406 180.269531 L 209.164062 180.269531 C 209.394531 180.269531 209.546875 180.179688 209.5 180.058594 Z M 209.5 180.058594 " fill-opacity="1" fill-rule="nonzero"/><path fill="rgb(9.408569%, 11.369324%, 15.289307%)" d="M 224.394531 176.011719 L 223.835938 174.730469 C 223.65625 174.464844 223.410156 174.292969 223.101562 174.210938 L 219.78125 173.203125 C 219.460938 173.105469 219.503906 173.027344 219.878906 173.027344 L 222.414062 173.027344 C 222.789062 173.027344 223.054688 172.921875 222.992188 172.789062 C 222.816406 172.578125 222.59375 172.433594 222.328125 172.359375 L 220.351562 171.660156 C 220.046875 171.550781 220.085938 171.414062 220.441406 171.359375 L 221.589844 171.171875 C 221.949219 171.113281 222.175781 170.910156 222.09375 170.726562 L 221.898438 170.28125 C 221.746094 170.023438 221.535156 169.828125 221.269531 169.695312 L 220.273438 169.1875 C 220.007812 169.054688 220.089844 168.902344 220.457031 168.867188 L 220.574219 168.851562 C 220.9375 168.804688 221.167969 168.613281 221.085938 168.429688 L 220.867188 167.925781 C 220.707031 167.667969 220.488281 167.476562 220.210938 167.355469 L 218.597656 166.621094 C 218.316406 166.492188 218.375 166.332031 218.730469 166.269531 L 219.402344 166.144531 C 219.753906 166.078125 219.972656 165.871094 219.890625 165.6875 L 219.832031 165.546875 C 219.683594 165.292969 219.476562 165.09375 219.214844 164.953125 L 218.554688 164.597656 C 218.300781 164.460938 218.335938 164.289062 218.644531 164.21875 C 218.953125 164.148438 219.125 163.941406 219.050781 163.753906 L 217.875 161.054688 C 217.792969 160.867188 217.65625 160.867188 217.570312 161.054688 L 215.96875 164.5625 C 215.886719 164.75 216.015625 164.949219 216.261719 165.003906 C 216.511719 165.0625 216.5 165.21875 216.238281 165.355469 L 215.867188 165.5625 C 215.605469 165.699219 215.398438 165.898438 215.242188 166.152344 L 215.09375 166.480469 C 215.007812 166.664062 215.226562 166.871094 215.574219 166.9375 L 216.054688 167.027344 C 216.40625 167.09375 216.464844 167.25 216.183594 167.378906 L 214.777344 168.019531 C 214.496094 168.140625 214.277344 168.332031 214.113281 168.589844 L 213.832031 169.203125 C 213.746094 169.390625 213.972656 169.582031 214.332031 169.628906 C 214.691406 169.671875 214.773438 169.820312 214.507812 169.957031 L 213.660156 170.386719 C 213.390625 170.523438 213.179688 170.71875 213.019531 170.972656 L 212.773438 171.511719 C 212.691406 171.695312 212.914062 171.894531 213.269531 171.953125 L 214.335938 172.125 C 214.695312 172.183594 214.734375 172.320312 214.425781 172.429688 L 212.507812 173.105469 C 212.238281 173.183594 212.011719 173.328125 211.835938 173.546875 C 211.769531 173.683594 212.027344 173.792969 212.402344 173.792969 L 214.894531 173.792969 C 215.269531 173.792969 215.3125 173.875 214.988281 173.972656 L 211.6875 174.972656 C 211.378906 175.054688 211.128906 175.230469 210.945312 175.492188 L 210.703125 176.019531 C 210.617188 176.207031 210.855469 176.359375 211.230469 176.359375 L 216.597656 176.359375 L 216.597656 183.273438 L 218.496094 183.273438 L 218.496094 176.351562 L 223.863281 176.351562 C 224.238281 176.351562 224.476562 176.199219 224.394531 176.011719 Z M 224.394531 176.011719 " fill-opacity="1" fill-rule="nonzero"/><path fill="rgb(9.408569%, 11.369324%, 15.289307%)" d="M 174.121094 207.425781 C 173.140625 207.136719 172.171875 206.824219 171.230469 206.472656 C 171.429688 206.136719 171.636719 205.808594 171.851562 205.480469 C 172.632812 206.117188 173.394531 206.761719 174.121094 207.425781 Z M 174.121094 207.425781 " fill-opacity="1" fill-rule="nonzero"/><path fill="rgb(9.408569%, 11.369324%, 15.289307%)" d="M 182.179688 201.933594 C 180.863281 203.039062 179.621094 204.1875 178.453125 205.375 C 177.21875 204.183594 175.902344 203.027344 174.523438 201.902344 C 175.539062 200.699219 176.617188 199.550781 177.753906 198.460938 C 179.316406 199.582031 180.792969 200.742188 182.179688 201.933594 Z M 182.179688 201.933594 " fill-opacity="1" fill-rule="nonzero"/><path fill="rgb(9.408569%, 11.369324%, 15.289307%)" d="M 190.648438 195.917969 C 189.308594 196.71875 188.007812 197.554688 186.757812 198.421875 C 186.414062 198.660156 186.078125 198.902344 185.746094 199.136719 C 184.304688 197.855469 182.789062 196.640625 181.199219 195.449219 C 182.773438 194.1875 184.40625 193.011719 186.101562 191.921875 C 187.734375 193.121094 189.25 194.453125 190.648438 195.917969 Z M 190.648438 195.917969 " fill-opacity="1" fill-rule="nonzero"/><path fill="rgb(9.408569%, 11.369324%, 15.289307%)" d="M 205.855469 204.996094 C 205.078125 205.363281 204.296875 205.695312 203.5 206.015625 C 202.421875 203.769531 201.148438 201.636719 199.683594 199.621094 C 199.082031 198.78125 198.441406 197.953125 197.761719 197.132812 C 196.800781 195.953125 195.773438 194.796875 194.671875 193.679688 C 193.238281 192.207031 191.738281 190.8125 190.164062 189.492188 C 192.171875 188.386719 194.292969 187.351562 196.503906 186.40625 C 197.761719 187.765625 198.933594 189.199219 200.023438 190.699219 C 200.113281 190.828125 200.203125 190.953125 200.292969 191.078125 C 201.164062 192.3125 201.960938 193.59375 202.679688 194.925781 C 204.449219 198.058594 205.507812 201.414062 205.855469 204.996094 Z M 205.855469 204.996094 " fill-opacity="1" fill-rule="nonzero"/><path fill="rgb(9.408569%, 11.369324%, 15.289307%)" d="M 228.96875 180.5 C 228.351562 182.0625 227.648438 183.582031 226.859375 185.0625 C 226.003906 186.679688 225.050781 188.238281 224.003906 189.738281 C 220.289062 195.070312 215.652344 199.410156 210.085938 202.753906 C 209.539062 199.453125 208.476562 196.328125 206.902344 193.375 C 206.199219 192.023438 205.421875 190.714844 204.574219 189.449219 C 204.277344 189 203.964844 188.542969 203.644531 188.097656 C 202.808594 186.929688 201.910156 185.789062 200.941406 184.671875 C 201.878906 184.335938 202.832031 184.015625 203.789062 183.707031 C 210.652344 181.53125 217.679688 180.414062 224.875 180.355469 C 226.273438 180.359375 227.636719 180.40625 228.96875 180.5 Z M 228.96875 180.5 " fill-opacity="1" fill-rule="nonzero"/><g clip-path="url(#clip-0)"><g clip-path="url(#clip-1)"><path fill="url(#linear-pattern-0)" d="M 143.441406 118.449219 L 143.441406 164.988281 L 232.15625 164.988281 L 232.15625 118.449219 Z M 143.441406 118.449219 " fill-rule="nonzero"/></g></g><g clip-path="url(#clip-2)"><path fill="rgb(9.408569%, 11.369324%, 15.289307%)" d="M 186.769531 117.324219 C 185.246094 117.324219 183.730469 117.402344 182.21875 117.550781 C 180.707031 117.699219 179.203125 117.921875 177.710938 118.21875 C 176.222656 118.515625 174.746094 118.886719 173.292969 119.328125 C 171.839844 119.769531 170.410156 120.28125 169.003906 120.867188 C 167.597656 121.449219 166.226562 122.097656 164.886719 122.816406 C 163.542969 123.535156 162.242188 124.316406 160.976562 125.164062 C 159.714844 126.007812 158.496094 126.914062 157.320312 127.882812 C 156.144531 128.847656 155.019531 129.867188 153.945312 130.945312 C 152.867188 132.023438 151.847656 133.148438 150.882812 134.328125 C 149.921875 135.503906 149.015625 136.726562 148.171875 137.992188 C 147.324219 139.257812 146.546875 140.5625 145.828125 141.90625 C 145.113281 143.25 144.460938 144.625 143.882812 146.03125 C 143.300781 147.4375 142.789062 148.871094 142.347656 150.328125 C 141.90625 151.785156 141.535156 153.261719 141.238281 154.753906 C 140.941406 156.246094 140.71875 157.753906 140.570312 159.269531 C 140.421875 160.785156 140.347656 162.304688 140.347656 163.824219 C 140.347656 165.347656 140.421875 166.867188 140.570312 168.382812 C 140.71875 169.898438 140.941406 171.402344 141.238281 172.898438 C 141.535156 174.390625 141.90625 175.867188 142.347656 177.324219 C 142.789062 178.78125 143.300781 180.214844 143.882812 181.621094 C 144.460938 183.027344 145.113281 184.402344 145.828125 185.746094 C 146.546875 187.089844 147.324219 188.394531 148.171875 189.660156 C 149.015625 190.925781 149.921875 192.148438 150.882812 193.324219 C 151.847656 194.503906 152.867188 195.628906 153.945312 196.707031 C 155.019531 197.785156 156.144531 198.804688 157.320312 199.769531 C 158.496094 200.738281 159.714844 201.644531 160.976562 202.488281 C 162.242188 203.335938 163.542969 204.117188 164.886719 204.835938 C 166.226562 205.554688 167.597656 206.203125 169.003906 206.785156 C 170.410156 207.371094 171.839844 207.882812 173.292969 208.324219 C 174.746094 208.765625 176.222656 209.136719 177.710938 209.433594 C 179.203125 209.730469 180.707031 209.953125 182.21875 210.101562 C 183.730469 210.25 185.246094 210.324219 186.769531 210.324219 C 188.289062 210.324219 189.804688 210.25 191.320312 210.101562 C 192.832031 209.953125 194.332031 209.730469 195.824219 209.433594 C 197.316406 209.136719 198.789062 208.765625 200.242188 208.324219 C 201.699219 207.882812 203.128906 207.371094 204.53125 206.785156 C 205.9375 206.203125 207.308594 205.554688 208.652344 204.835938 C 209.992188 204.117188 211.292969 203.335938 212.558594 202.488281 C 213.824219 201.644531 215.042969 200.738281 216.21875 199.769531 C 217.394531 198.804688 218.519531 197.785156 219.59375 196.707031 C 220.667969 195.628906 221.6875 194.503906 222.652344 193.324219 C 223.617188 192.148438 224.519531 190.925781 225.367188 189.660156 C 226.210938 188.394531 226.992188 187.089844 227.707031 185.746094 C 228.425781 184.402344 229.074219 183.027344 229.65625 181.621094 C 230.238281 180.214844 230.75 178.78125 231.191406 177.324219 C 231.632812 175.867188 232 174.390625 232.296875 172.898438 C 232.59375 171.402344 232.816406 169.898438 232.964844 168.382812 C 233.113281 166.867188 233.1875 165.347656 233.1875 163.824219 C 233.1875 162.304688 233.113281 160.785156 232.960938 159.269531 C 232.8125 157.753906 232.585938 156.25 232.289062 154.757812 C 231.992188 153.265625 231.621094 151.789062 231.179688 150.332031 C 230.738281 148.875 230.226562 147.445312 229.644531 146.039062 C 229.058594 144.632812 228.410156 143.257812 227.695312 141.914062 C 226.976562 140.574219 226.195312 139.269531 225.351562 138.003906 C 224.507812 136.738281 223.601562 135.515625 222.636719 134.339844 C 221.671875 133.164062 220.652344 132.035156 219.578125 130.960938 C 218.503906 129.882812 217.378906 128.863281 216.203125 127.894531 C 215.03125 126.929688 213.8125 126.023438 212.546875 125.175781 C 211.285156 124.332031 209.980469 123.550781 208.640625 122.832031 C 207.300781 122.113281 205.929688 121.460938 204.527344 120.878906 C 203.121094 120.296875 201.691406 119.78125 200.238281 119.339844 C 198.785156 118.894531 197.3125 118.527344 195.820312 118.226562 C 194.332031 117.929688 192.828125 117.703125 191.316406 117.554688 C 189.804688 117.402344 188.289062 117.328125 186.769531 117.324219 Z M 198.765625 206.429688 C 197.363281 203.859375 195.699219 201.46875 193.777344 199.261719 C 192.121094 200.214844 190.535156 201.21875 189.03125 202.273438 C 190.660156 203.9375 192.171875 205.703125 193.570312 207.566406 C 191.828125 207.84375 190.078125 208.007812 188.316406 208.066406 C 187.820312 207.476562 187.304688 206.886719 186.761719 206.300781 C 186.335938 205.855469 185.921875 205.414062 185.46875 204.96875 C 184.328125 205.90625 183.25 206.875 182.234375 207.855469 C 177.15625 207.335938 172.3125 205.96875 167.710938 203.753906 C 167.910156 203.433594 168.113281 203.113281 168.320312 202.792969 C 164.582031 200.160156 160.636719 197.898438 156.476562 196.007812 C 154.152344 193.820312 152.089844 191.410156 150.289062 188.777344 C 152.285156 189.441406 154.269531 190.1875 156.242188 191.019531 C 161.460938 193.226562 166.382812 195.960938 171.015625 199.226562 C 171.28125 198.90625 171.550781 198.578125 171.839844 198.265625 C 172.523438 197.488281 173.238281 196.722656 173.992188 195.976562 C 170.6875 193.925781 167.242188 192.144531 163.660156 190.632812 C 158.792969 188.554688 153.757812 187.019531 148.554688 186.03125 C 147.628906 184.441406 146.804688 182.800781 146.085938 181.105469 C 152.761719 182.050781 159.203125 183.855469 165.402344 186.515625 C 169.582031 188.285156 173.578125 190.390625 177.398438 192.835938 C 178.9375 191.539062 180.570312 190.296875 182.296875 189.109375 C 178.195312 186.320312 173.855469 183.960938 169.285156 182.035156 C 161.34375 178.578125 153.042969 176.6875 144.386719 176.363281 C 143.949219 174.886719 143.589844 173.390625 143.316406 171.875 C 152.953125 172.050781 162.195312 174.058594 171.035156 177.90625 C 176.46875 180.199219 181.578125 183.074219 186.367188 186.523438 C 186.492188 186.621094 186.761719 186.292969 186.761719 186.292969 C 188.785156 185.113281 190.914062 184.019531 193.117188 183.011719 C 191.113281 181.183594 188.996094 179.488281 186.769531 177.9375 C 182.523438 174.980469 178.019531 172.496094 173.253906 170.488281 C 164.886719 166.84375 156.144531 164.949219 147.023438 164.816406 C 145.496094 164.816406 144.023438 164.878906 142.59375 165.011719 C 142.59375 164.617188 142.578125 164.21875 142.578125 163.824219 C 142.578125 162.460938 142.640625 161.097656 142.765625 159.738281 C 142.894531 158.378906 143.082031 157.03125 143.332031 155.6875 C 143.582031 154.347656 143.894531 153.019531 144.265625 151.707031 C 144.640625 150.394531 145.074219 149.101562 145.566406 147.828125 C 146.058594 146.554688 146.609375 145.308594 147.214844 144.085938 C 147.824219 142.863281 148.488281 141.671875 149.203125 140.511719 C 149.921875 139.351562 150.691406 138.226562 151.511719 137.136719 C 152.335938 136.050781 153.203125 135 154.121094 133.992188 C 155.042969 132.984375 156.003906 132.019531 157.011719 131.101562 C 158.019531 130.183594 159.066406 129.3125 160.15625 128.488281 C 161.242188 127.667969 162.367188 126.898438 163.523438 126.179688 C 164.683594 125.460938 165.875 124.796875 167.09375 124.191406 C 168.3125 123.582031 169.558594 123.03125 170.832031 122.539062 C 172.101562 122.046875 173.390625 121.613281 174.703125 121.242188 C 176.015625 120.871094 177.339844 120.558594 178.679688 120.308594 C 180.019531 120.058594 181.367188 119.871094 182.722656 119.746094 C 184.082031 119.621094 185.441406 119.558594 186.804688 119.5625 C 188.167969 119.5625 189.527344 119.625 190.882812 119.753906 C 192.238281 119.878906 193.585938 120.070312 194.925781 120.320312 C 196.265625 120.574219 197.589844 120.886719 198.902344 121.261719 C 200.210938 121.636719 201.503906 122.070312 202.773438 122.566406 C 204.042969 123.058594 205.289062 123.613281 206.507812 124.222656 C 207.726562 124.832031 208.914062 125.496094 210.070312 126.214844 C 211.230469 126.9375 212.351562 127.707031 213.4375 128.53125 C 214.523438 129.355469 215.570312 130.226562 216.578125 131.148438 C 217.582031 132.070312 218.542969 133.035156 219.460938 134.042969 C 220.378906 135.054688 221.246094 136.105469 222.066406 137.195312 C 222.886719 138.285156 223.652344 139.410156 224.371094 140.574219 C 225.085938 141.734375 225.746094 142.925781 226.351562 144.148438 C 226.957031 145.371094 227.507812 146.621094 227.996094 147.894531 C 228.488281 149.167969 228.917969 150.460938 229.289062 151.773438 C 229.660156 153.089844 229.96875 154.414062 230.21875 155.757812 C 230.464844 157.101562 230.652344 158.449219 230.777344 159.808594 C 230.898438 161.167969 230.960938 162.53125 230.957031 163.898438 C 230.957031 165.261719 230.890625 166.625 230.761719 167.984375 C 230.632812 169.34375 230.445312 170.691406 230.191406 172.035156 C 229.9375 173.375 229.625 174.703125 229.25 176.015625 C 228.875 177.328125 228.441406 178.617188 227.945312 179.890625 C 227.449219 181.164062 226.898438 182.410156 226.289062 183.628906 C 225.679688 184.851562 225.015625 186.039062 224.292969 187.199219 C 223.574219 188.359375 222.804688 189.480469 221.980469 190.570312 C 221.15625 191.65625 220.285156 192.703125 219.367188 193.710938 C 218.445312 194.71875 217.480469 195.679688 216.472656 196.597656 C 215.460938 197.515625 214.414062 198.386719 213.324219 199.207031 C 212.234375 200.027344 211.109375 200.792969 209.949219 201.511719 C 208.789062 202.226562 207.601562 202.886719 206.378906 203.492188 C 205.15625 204.097656 203.910156 204.648438 202.640625 205.136719 C 201.367188 205.628906 200.074219 206.058594 198.765625 206.429688 Z M 198.765625 206.429688 " fill-opacity="1" fill-rule="nonzero"/></g><path fill="rgb(9.408569%, 11.369324%, 15.289307%)" d="M 163.621094 154.425781 L 158.609375 151.480469 L 148.476562 154.6875 L 146.371094 161.769531 L 146.851562 162.042969 L 146.851562 166.800781 L 162.859375 167.558594 L 163.199219 163.070312 L 164.761719 161.710938 Z M 155.109375 165.953125 L 148.085938 165.617188 L 148.085938 162.089844 L 155.109375 162.089844 Z M 155.320312 157.84375 L 155.144531 160.855469 L 147.933594 160.855469 L 149.472656 155.671875 L 156.492188 153.457031 L 155.316406 155.082031 Z M 160.09375 166.183594 L 158.738281 166.113281 L 158.738281 163.003906 L 160.09375 163.003906 Z M 161.984375 162.472656 L 161.699219 166.261719 L 161.335938 166.242188 L 161.335938 161.753906 L 157.496094 161.753906 L 157.496094 166.070312 L 156.355469 166.007812 L 156.355469 161.558594 L 156.5625 157.882812 L 156.5625 155.488281 L 158.472656 152.851562 L 162.496094 155.210938 L 163.429688 161.238281 Z M 161.984375 162.472656 " fill-opacity="1" fill-rule="nonzero"/><path fill="rgb(9.408569%, 11.369324%, 15.289307%)" d="M 158.542969 156.972656 L 158.542969 158.726562 L 160.296875 158.726562 L 160.296875 156.972656 Z M 159.617188 158.042969 L 159.222656 158.042969 L 159.222656 157.652344 L 159.617188 157.652344 Z M 159.617188 158.042969 " fill-opacity="1" fill-rule="nonzero"/></svg>